<mxfile host="app.diagrams.net" modified="2023-10-31T10:03:26.367Z" agent="Mozilla/5.0 (Windows NT 10.0; Win64; x64) AppleWebKit/537.36 (KHTML, like Gecko) Chrome/118.0.0.0 Safari/537.36" etag="je-BvvqZZ6xPHVr74C6W" version="22.0.8" type="github">
  <diagram name="Page-1" id="RzCiEBjRraIQC5C2OHAX">
    <mxGraphModel dx="1434" dy="758" grid="1" gridSize="10" guides="1" tooltips="1" connect="1" arrows="1" fold="1" page="1" pageScale="1" pageWidth="827" pageHeight="1169" math="0" shadow="0">
      <root>
        <mxCell id="0" />
        <mxCell id="1" parent="0" />
        <mxCell id="qAXU_QblyjmCjn5gIZvt-3" value="" style="rounded=0;whiteSpace=wrap;html=1;" vertex="1" parent="1">
          <mxGeometry x="90" y="320" width="140" height="120" as="geometry" />
        </mxCell>
        <mxCell id="qAXU_QblyjmCjn5gIZvt-1" value="" style="image;aspect=fixed;html=1;points=[];align=center;fontSize=12;image=img/lib/azure2/networking/Application_Gateways.svg;" vertex="1" parent="1">
          <mxGeometry x="130" y="330" width="64" height="64" as="geometry" />
        </mxCell>
        <mxCell id="qAXU_QblyjmCjn5gIZvt-2" value="Web Application Gateway and Firewall&amp;nbsp;" style="text;html=1;strokeColor=none;fillColor=none;align=center;verticalAlign=middle;whiteSpace=wrap;rounded=0;" vertex="1" parent="1">
          <mxGeometry x="93.25" y="400" width="133.5" height="30" as="geometry" />
        </mxCell>
        <mxCell id="qAXU_QblyjmCjn5gIZvt-4" value="Order Received API&amp;nbsp; &amp;nbsp; &amp;nbsp; &amp;nbsp; &amp;nbsp;&amp;nbsp;" style="rounded=0;whiteSpace=wrap;html=1;" vertex="1" parent="1">
          <mxGeometry x="304" y="123" width="276" height="94" as="geometry" />
        </mxCell>
        <mxCell id="qAXU_QblyjmCjn5gIZvt-14" value="" style="edgeStyle=orthogonalEdgeStyle;rounded=0;orthogonalLoop=1;jettySize=auto;html=1;" edge="1" parent="1" source="qAXU_QblyjmCjn5gIZvt-8" target="qAXU_QblyjmCjn5gIZvt-4">
          <mxGeometry relative="1" as="geometry" />
        </mxCell>
        <mxCell id="qAXU_QblyjmCjn5gIZvt-8" value="" style="rounded=0;whiteSpace=wrap;html=1;" vertex="1" parent="1">
          <mxGeometry x="90" y="110" width="140" height="120" as="geometry" />
        </mxCell>
        <mxCell id="qAXU_QblyjmCjn5gIZvt-9" value="" style="image;aspect=fixed;html=1;points=[];align=center;fontSize=12;image=img/lib/azure2/networking/Load_Balancers.svg;" vertex="1" parent="1">
          <mxGeometry x="124" y="120" width="72" height="72" as="geometry" />
        </mxCell>
        <mxCell id="qAXU_QblyjmCjn5gIZvt-10" value="Load Balancer" style="text;html=1;strokeColor=none;fillColor=none;align=center;verticalAlign=middle;whiteSpace=wrap;rounded=0;" vertex="1" parent="1">
          <mxGeometry x="78.5" y="192" width="163" height="30" as="geometry" />
        </mxCell>
        <mxCell id="qAXU_QblyjmCjn5gIZvt-20" value="" style="edgeStyle=orthogonalEdgeStyle;rounded=0;orthogonalLoop=1;jettySize=auto;html=1;" edge="1" parent="1" source="qAXU_QblyjmCjn5gIZvt-13" target="qAXU_QblyjmCjn5gIZvt-18">
          <mxGeometry relative="1" as="geometry">
            <Array as="points">
              <mxPoint x="610" y="170" />
              <mxPoint x="610" y="210" />
            </Array>
          </mxGeometry>
        </mxCell>
        <mxCell id="qAXU_QblyjmCjn5gIZvt-13" value="" style="verticalLabelPosition=bottom;html=1;verticalAlign=top;align=center;strokeColor=none;fillColor=#00BEF2;shape=mxgraph.azure.virtual_machine_feature;pointerEvents=1;" vertex="1" parent="1">
          <mxGeometry x="500" y="141.75" width="60" height="56.5" as="geometry" />
        </mxCell>
        <mxCell id="qAXU_QblyjmCjn5gIZvt-18" value="" style="rounded=0;whiteSpace=wrap;html=1;" vertex="1" parent="1">
          <mxGeometry x="640" y="180" width="120" height="100" as="geometry" />
        </mxCell>
        <mxCell id="qAXU_QblyjmCjn5gIZvt-19" value="Order Received API&amp;nbsp; &amp;nbsp; &amp;nbsp; &amp;nbsp; &amp;nbsp;&amp;nbsp;" style="rounded=0;whiteSpace=wrap;html=1;" vertex="1" parent="1">
          <mxGeometry x="304" y="276" width="276" height="94" as="geometry" />
        </mxCell>
        <mxCell id="qAXU_QblyjmCjn5gIZvt-21" style="edgeStyle=orthogonalEdgeStyle;rounded=0;orthogonalLoop=1;jettySize=auto;html=1;entryX=1.029;entryY=0.479;entryDx=0;entryDy=0;entryPerimeter=0;" edge="1" parent="1" source="qAXU_QblyjmCjn5gIZvt-18" target="qAXU_QblyjmCjn5gIZvt-19">
          <mxGeometry relative="1" as="geometry">
            <Array as="points">
              <mxPoint x="610" y="270" />
              <mxPoint x="610" y="321" />
            </Array>
          </mxGeometry>
        </mxCell>
        <mxCell id="qAXU_QblyjmCjn5gIZvt-22" value="" style="image;sketch=0;aspect=fixed;html=1;points=[];align=center;fontSize=12;image=img/lib/mscae/Service_Bus.svg;" vertex="1" parent="1">
          <mxGeometry x="675" y="198.25" width="50" height="50" as="geometry" />
        </mxCell>
        <mxCell id="qAXU_QblyjmCjn5gIZvt-25" value="Azure Service Bus" style="text;html=1;strokeColor=none;fillColor=none;align=center;verticalAlign=middle;whiteSpace=wrap;rounded=0;" vertex="1" parent="1">
          <mxGeometry x="635" y="248.25" width="130" height="30" as="geometry" />
        </mxCell>
      </root>
    </mxGraphModel>
  </diagram>
</mxfile>
